<mxfile host="app.diagrams.net" agent="Mozilla/5.0 (Windows NT 10.0; Win64; x64) AppleWebKit/537.36 (KHTML, like Gecko) Chrome/134.0.0.0 Safari/537.36" version="26.2.9">
  <diagram name="PÃ¡gina-1" id="l93xphTROzj1MkBYyOu6">
    <mxGraphModel dx="1426" dy="759" grid="1" gridSize="10" guides="1" tooltips="1" connect="1" arrows="1" fold="1" page="1" pageScale="1" pageWidth="1169" pageHeight="827" math="0" shadow="0">
      <root>
        <mxCell id="0" />
        <mxCell id="1" parent="0" />
        <mxCell id="ZoEZg1mx5itgojpnxjtS-13" style="edgeStyle=orthogonalEdgeStyle;rounded=0;orthogonalLoop=1;jettySize=auto;html=1;strokeWidth=2;" edge="1" parent="1" source="ZoEZg1mx5itgojpnxjtS-1" target="ZoEZg1mx5itgojpnxjtS-4">
          <mxGeometry relative="1" as="geometry" />
        </mxCell>
        <mxCell id="ZoEZg1mx5itgojpnxjtS-18" style="edgeStyle=orthogonalEdgeStyle;rounded=0;orthogonalLoop=1;jettySize=auto;html=1;entryX=0;entryY=0.5;entryDx=0;entryDy=0;curved=1;strokeWidth=2;" edge="1" parent="1" source="ZoEZg1mx5itgojpnxjtS-1" target="ZoEZg1mx5itgojpnxjtS-9">
          <mxGeometry relative="1" as="geometry" />
        </mxCell>
        <mxCell id="ZoEZg1mx5itgojpnxjtS-1" value="" style="ellipse;whiteSpace=wrap;html=1;aspect=fixed;fillColor=#dae8fc;strokeColor=#6c8ebf;" vertex="1" parent="1">
          <mxGeometry x="270" y="240" width="30" height="30" as="geometry" />
        </mxCell>
        <mxCell id="ZoEZg1mx5itgojpnxjtS-2" value="master / main" style="text;html=1;align=center;verticalAlign=middle;resizable=0;points=[];autosize=1;strokeColor=none;fillColor=none;fontStyle=1;fontFamily=Verdana;" vertex="1" parent="1">
          <mxGeometry x="160" y="240" width="110" height="30" as="geometry" />
        </mxCell>
        <mxCell id="ZoEZg1mx5itgojpnxjtS-23" style="edgeStyle=orthogonalEdgeStyle;rounded=0;orthogonalLoop=1;jettySize=auto;html=1;entryX=0;entryY=0.5;entryDx=0;entryDy=0;curved=1;strokeWidth=2;" edge="1" parent="1" source="ZoEZg1mx5itgojpnxjtS-3" target="ZoEZg1mx5itgojpnxjtS-10">
          <mxGeometry relative="1" as="geometry" />
        </mxCell>
        <mxCell id="ZoEZg1mx5itgojpnxjtS-3" value="" style="ellipse;whiteSpace=wrap;html=1;aspect=fixed;fillColor=#f8cecc;strokeColor=#b85450;" vertex="1" parent="1">
          <mxGeometry x="500" y="160" width="30" height="30" as="geometry" />
        </mxCell>
        <mxCell id="ZoEZg1mx5itgojpnxjtS-14" style="edgeStyle=orthogonalEdgeStyle;rounded=0;orthogonalLoop=1;jettySize=auto;html=1;strokeWidth=2;" edge="1" parent="1" source="ZoEZg1mx5itgojpnxjtS-4" target="ZoEZg1mx5itgojpnxjtS-10">
          <mxGeometry relative="1" as="geometry" />
        </mxCell>
        <mxCell id="ZoEZg1mx5itgojpnxjtS-19" style="edgeStyle=orthogonalEdgeStyle;rounded=0;orthogonalLoop=1;jettySize=auto;html=1;entryX=0;entryY=0.5;entryDx=0;entryDy=0;curved=1;strokeWidth=2;" edge="1" parent="1" source="ZoEZg1mx5itgojpnxjtS-4" target="ZoEZg1mx5itgojpnxjtS-5">
          <mxGeometry relative="1" as="geometry" />
        </mxCell>
        <mxCell id="ZoEZg1mx5itgojpnxjtS-4" value="" style="ellipse;whiteSpace=wrap;html=1;aspect=fixed;fillColor=#dae8fc;strokeColor=#6c8ebf;" vertex="1" parent="1">
          <mxGeometry x="440" y="240" width="30" height="30" as="geometry" />
        </mxCell>
        <mxCell id="ZoEZg1mx5itgojpnxjtS-20" style="edgeStyle=orthogonalEdgeStyle;rounded=0;orthogonalLoop=1;jettySize=auto;html=1;entryX=0;entryY=0.5;entryDx=0;entryDy=0;strokeWidth=2;" edge="1" parent="1" source="ZoEZg1mx5itgojpnxjtS-5" target="ZoEZg1mx5itgojpnxjtS-6">
          <mxGeometry relative="1" as="geometry" />
        </mxCell>
        <mxCell id="ZoEZg1mx5itgojpnxjtS-5" value="" style="ellipse;whiteSpace=wrap;html=1;aspect=fixed;fillColor=#d5e8d4;strokeColor=#82b366;" vertex="1" parent="1">
          <mxGeometry x="540" y="320" width="30" height="30" as="geometry" />
        </mxCell>
        <mxCell id="ZoEZg1mx5itgojpnxjtS-22" style="edgeStyle=orthogonalEdgeStyle;rounded=0;orthogonalLoop=1;jettySize=auto;html=1;entryX=0;entryY=0.5;entryDx=0;entryDy=0;curved=1;strokeWidth=2;" edge="1" parent="1" source="ZoEZg1mx5itgojpnxjtS-6" target="ZoEZg1mx5itgojpnxjtS-8">
          <mxGeometry relative="1" as="geometry" />
        </mxCell>
        <mxCell id="ZoEZg1mx5itgojpnxjtS-6" value="" style="ellipse;whiteSpace=wrap;html=1;aspect=fixed;fillColor=#d5e8d4;strokeColor=#82b366;" vertex="1" parent="1">
          <mxGeometry x="650" y="320" width="30" height="30" as="geometry" />
        </mxCell>
        <mxCell id="ZoEZg1mx5itgojpnxjtS-8" value="" style="ellipse;whiteSpace=wrap;html=1;aspect=fixed;fillColor=#dae8fc;strokeColor=#6c8ebf;" vertex="1" parent="1">
          <mxGeometry x="740" y="240" width="30" height="30" as="geometry" />
        </mxCell>
        <mxCell id="ZoEZg1mx5itgojpnxjtS-16" style="edgeStyle=orthogonalEdgeStyle;rounded=0;orthogonalLoop=1;jettySize=auto;html=1;strokeWidth=2;" edge="1" parent="1" source="ZoEZg1mx5itgojpnxjtS-9" target="ZoEZg1mx5itgojpnxjtS-3">
          <mxGeometry relative="1" as="geometry" />
        </mxCell>
        <mxCell id="ZoEZg1mx5itgojpnxjtS-9" value="" style="ellipse;whiteSpace=wrap;html=1;aspect=fixed;fillColor=#f8cecc;strokeColor=#b85450;" vertex="1" parent="1">
          <mxGeometry x="390" y="160" width="30" height="30" as="geometry" />
        </mxCell>
        <mxCell id="ZoEZg1mx5itgojpnxjtS-15" style="edgeStyle=orthogonalEdgeStyle;rounded=0;orthogonalLoop=1;jettySize=auto;html=1;strokeWidth=2;" edge="1" parent="1" source="ZoEZg1mx5itgojpnxjtS-10" target="ZoEZg1mx5itgojpnxjtS-8">
          <mxGeometry relative="1" as="geometry" />
        </mxCell>
        <mxCell id="ZoEZg1mx5itgojpnxjtS-10" value="" style="ellipse;whiteSpace=wrap;html=1;aspect=fixed;fillColor=#dae8fc;strokeColor=#6c8ebf;" vertex="1" parent="1">
          <mxGeometry x="590" y="240" width="30" height="30" as="geometry" />
        </mxCell>
        <mxCell id="ZoEZg1mx5itgojpnxjtS-24" value="hotfix" style="text;html=1;align=center;verticalAlign=middle;resizable=0;points=[];autosize=1;strokeColor=none;fillColor=none;fontStyle=1;fontFamily=Verdana;" vertex="1" parent="1">
          <mxGeometry x="425" y="130" width="60" height="30" as="geometry" />
        </mxCell>
        <mxCell id="ZoEZg1mx5itgojpnxjtS-25" value="feature" style="text;html=1;align=center;verticalAlign=middle;resizable=0;points=[];autosize=1;strokeColor=none;fillColor=none;fontStyle=1;fontFamily=Verdana;" vertex="1" parent="1">
          <mxGeometry x="579.5" y="350" width="70" height="30" as="geometry" />
        </mxCell>
      </root>
    </mxGraphModel>
  </diagram>
</mxfile>
